<?xml version="1.0" encoding="UTF-8"?>
<svg version="1.1" xmlns="http://www.w3.org/2000/svg" width="1024" height="1024">
<path d="M0 0 C337.92 0 675.84 0 1024 0 C1024 337.92 1024 675.84 1024 1024 C686.08 1024 348.16 1024 0 1024 C0 686.08 0 348.16 0 0 Z " fill="#FEFEFE" transform="translate(0,0)"/>
<path d="M0 0 C2.67278004 -0.00271482 5.34554906 -0.00620721 8.01832581 -0.01062012 C14.48643419 -0.01945242 20.95449581 -0.01761977 27.42260592 -0.01179484 C32.68616072 -0.00725346 37.94970254 -0.00667606 43.21325874 -0.00884247 C43.96620738 -0.00914893 44.71915602 -0.0094554 45.49492129 -0.00977115 C47.02517005 -0.01041069 48.5554188 -0.01105912 50.08566756 -0.01171634 C64.39118062 -0.01740168 78.69666793 -0.01089026 93.00217677 -0.0001156 C105.23941979 0.00881644 117.47662485 0.00726722 129.71386719 -0.00195312 C143.97129854 -0.0126908 158.22870739 -0.01685061 172.48614222 -0.0107286 C174.0106494 -0.01009159 175.53515658 -0.00946285 177.05966377 -0.00884247 C177.80948238 -0.00853392 178.55930098 -0.00822537 179.33184136 -0.00790747 C184.57995137 -0.00619085 189.82804694 -0.0090732 195.07615471 -0.01380157 C201.4849851 -0.01944954 207.8937666 -0.01781268 214.3025915 -0.00724009 C217.56362528 -0.00203518 220.82456248 -0.00093952 224.08559799 -0.00653839 C269.41858947 -0.07714665 309.23382378 9.48014366 342.20336914 42.25878906 C342.6790332 42.7304248 343.15469727 43.20206055 343.64477539 43.68798828 C351.06746313 51.15365479 356.92810246 59.16390323 362.20336914 68.25878906 C362.5876709 68.91508301 362.97197266 69.57137695 363.36791992 70.24755859 C378.67353326 96.7212794 381.83526568 124.65950972 381.70507812 154.86206055 C381.70887338 157.41779374 381.71438325 159.97352486 381.72145081 162.5292511 C381.73383588 168.68084242 381.72796052 174.83216767 381.71277522 180.98374509 C381.69571157 188.1761703 381.69915033 195.36854646 381.7028693 202.56098569 C381.70871508 215.40552621 381.69470247 228.24996794 381.66992188 241.09448242 C381.64597565 253.50825698 381.63893552 265.92189984 381.64941406 278.33569336 C381.66086232 291.92225607 381.66270799 305.50875825 381.64831597 319.09532028 C381.64679043 320.5478055 381.64527007 322.00029073 381.64375496 323.45277596 C381.64299714 324.16706533 381.64223933 324.88135471 381.64145855 325.61728923 C381.63674858 330.61101803 381.63854333 335.60471946 381.64282036 340.5984478 C381.64830439 347.33337774 381.63735531 354.06810111 381.61586571 360.80300713 C381.61034312 363.26106153 381.60979038 365.71913341 381.61481857 368.17718887 C381.64563059 385.41157011 380.68488523 401.83801716 375.45336914 418.38378906 C375.196604 419.21088379 374.93983887 420.03797852 374.67529297 420.89013672 C368.96433166 438.76329864 360.41713032 453.9660898 348.20336914 468.25878906 C347.50598633 469.09023438 346.80860352 469.92167969 346.09008789 470.77832031 C340.67439843 477.04051186 334.75775833 482.21906965 328.20336914 487.25878906 C327.38610352 487.91492188 326.56883789 488.57105469 325.72680664 489.24707031 C307.80740475 503.08883741 287.19184225 510.04708572 265.20336914 514.25878906 C264.41181521 514.42917065 263.62026129 514.59955223 262.80472088 514.77509689 C257.69342163 515.46158786 252.63799894 515.40325387 247.48628235 515.39923096 C245.70397989 515.40368764 245.70397989 515.40368764 243.88567132 515.40823436 C240.59523192 515.41539894 237.30484475 515.41809246 234.01440132 515.41883183 C230.46195703 515.42068715 226.90952395 515.42823719 223.35708618 515.43496704 C215.58988609 515.44853522 207.82269117 515.45457358 200.0554812 515.4589777 C195.19852289 515.4617444 190.34156657 515.4659827 185.4846096 515.47048187 C172.01895555 515.48267581 158.55330308 515.49297277 145.08764362 515.49635696 C144.22612393 515.49657653 143.36460424 515.4967961 142.4769779 515.49702232 C141.18170175 515.49734973 141.18170175 515.49734973 139.8602584 515.49768376 C138.11061497 515.49812722 136.36097155 515.49857378 134.61132812 515.49902344 C133.7434549 515.49924487 132.87558168 515.4994663 131.98140927 515.49969444 C117.94607365 515.50363509 103.91079018 515.52106611 89.87547467 515.54438296 C75.44154252 515.56816684 61.00763644 515.58056212 46.57368439 515.58172488 C38.47951206 515.58263805 30.38540756 515.58829877 22.29125404 515.60654449 C15.39250024 515.62204121 8.49383522 515.62701034 1.5950673 515.61880639 C-1.91718229 515.61493253 -5.42925365 515.6156666 -8.94148064 515.62986374 C-27.5395219 515.69224213 -45.76360331 515.38632057 -63.48413086 509.07128906 C-64.78846069 508.61955322 -64.78846069 508.61955322 -66.11914062 508.15869141 C-85.76197037 501.14326638 -102.44028789 490.23666398 -117.79663086 476.25878906 C-118.48370117 475.64390625 -119.17077148 475.02902344 -119.87866211 474.39550781 C-143.87645417 451.74653778 -157.74618679 416.18533844 -158.89065027 383.58022988 C-158.92975593 380.81168396 -158.93957659 378.04471339 -158.93707275 375.27589417 C-158.94004388 374.2270503 -158.943015 373.17820643 -158.94607615 372.09757942 C-158.95468848 368.61297759 -158.95626503 365.12841042 -158.95776367 361.64379883 C-158.96239718 359.13278634 -158.96742255 356.62177454 -158.97280884 354.11076355 C-158.98588445 347.30863583 -158.99240618 340.50651937 -158.9968195 333.70438123 C-158.99959377 329.44657026 -159.00383322 325.18876153 -159.00832367 320.93095207 C-159.02050767 309.11214243 -159.03080848 297.29333456 -159.03419876 285.47451878 C-159.03441833 284.71979265 -159.03463789 283.96506652 -159.03486411 283.1874699 C-159.03508239 282.4310716 -159.03530067 281.67467331 -159.03552556 280.89535385 C-159.03596901 279.36293447 -159.03641557 277.83051509 -159.03686523 276.2980957 C-159.03708666 275.53798382 -159.03730809 274.77787193 -159.03753623 273.99472635 C-159.04147866 261.69664315 -159.05891962 249.3986194 -159.08222476 237.10055912 C-159.10603011 224.43493298 -159.11840478 211.76933655 -159.11956668 199.1036877 C-159.12047833 192.00833226 -159.12610077 184.9130543 -159.14438629 177.81772041 C-159.16154806 171.1355274 -159.1629719 164.45350538 -159.15424728 157.77128792 C-159.15348247 155.33342596 -159.15774522 152.89555581 -159.16770554 150.45771408 C-159.3254121 109.41604111 -148.99445171 73.86410796 -120.79663086 43.25878906 C-120.07088867 42.45054687 -119.34514648 41.64230469 -118.59741211 40.80957031 C-87.13044903 7.42462091 -43.7107564 -0.07498262 0 0 Z " fill="#DBF1FE" transform="translate(400.796630859375,129.7412109375)"/>
<path d="M0 0 C6.57982238 4.71147776 11.42476298 10.605241 14.25 18.25 C14.25 19.24 14.25 20.23 14.25 21.25 C14.98114014 21.23428955 15.71228027 21.2185791 16.46557617 21.20239258 C19.7894716 21.13989649 23.1132432 21.10096248 26.4375 21.0625 C28.16323242 21.02479492 28.16323242 21.02479492 29.92382812 20.98632812 C31.59155273 20.97182617 31.59155273 20.97182617 33.29296875 20.95703125 C34.31414795 20.9413208 35.33532715 20.92561035 36.38745117 20.90942383 C39.73045786 21.30716322 41.55533687 22.26166212 44.25 24.25 C47.20268387 28.72993415 47.36858189 31.98246747 47.25 37.25 C48.82297852 37.2185791 48.82297852 37.2185791 50.42773438 37.18652344 C54.34881735 37.11367508 58.26984149 37.06803889 62.19140625 37.03027344 C63.88291511 37.0102594 65.57435567 36.98303927 67.265625 36.94824219 C69.70850554 36.89926935 72.15046511 36.87692967 74.59375 36.859375 C75.33991577 36.83872986 76.08608154 36.81808472 76.8548584 36.79681396 C83.27740558 36.79411949 88.3578051 38.80447613 93.2734375 42.9609375 C93.71945312 43.51007813 94.16546875 44.05921875 94.625 44.625 C95.31722656 45.44097656 95.31722656 45.44097656 96.0234375 46.2734375 C99.35828735 51.6474312 99.53189564 56.89753235 99.47705078 63.00927734 C99.47734283 63.86846771 99.47763489 64.72765808 99.47793579 65.61288452 C99.47654853 68.4373402 99.46101584 71.26152821 99.4453125 74.0859375 C99.44158022 76.05034237 99.43873426 78.0147491 99.43673706 79.97915649 C99.42911753 85.13797181 99.40948345 90.29667369 99.3873291 95.45544434 C99.36683447 100.72418687 99.35772761 105.99294781 99.34765625 111.26171875 C99.32623597 121.59120357 99.29106751 131.92057459 99.25 142.25 C109.48 142.25 119.71 142.25 130.25 142.25 C130.25 138.95 130.25 135.65 130.25 132.25 C131.3515625 129.62890625 131.3515625 129.62890625 132.875 127.8125 C133.36226562 127.19503906 133.84953125 126.57757813 134.3515625 125.94140625 C140.3134447 120.62968815 146.2030059 120.84673001 153.7734375 120.95703125 C155.42540634 120.96339851 155.42540634 120.96339851 157.11074829 120.96989441 C160.61575133 120.9866385 164.12017179 121.02428386 167.625 121.0625 C170.00650209 121.07755231 172.38801323 121.09123976 174.76953125 121.10351562 C180.59675721 121.13397151 186.42272927 121.19270346 192.25 121.25 C192.25 110.69 192.25 100.13 192.25 89.25 C188.7334375 89.30800781 185.216875 89.36601562 181.59375 89.42578125 C178.1715724 89.46482326 174.74942002 89.49515586 171.32714844 89.5246582 C168.95659196 89.54973575 166.5861123 89.58380632 164.21582031 89.62719727 C160.79993695 89.68814397 157.38507964 89.7162785 153.96875 89.73828125 C152.39015198 89.77699089 152.39015198 89.77699089 150.77966309 89.81648254 C144.11913927 89.81899683 139.14781413 89.03211594 134.25 84.25 C130.41268062 79.12531408 129.65730472 74.05914946 129.75390625 67.8046875 C129.75245102 67.0311795 129.75099579 66.25767151 129.74949646 65.46072388 C129.75114444 63.83884889 129.76258105 62.21695644 129.78344727 60.59521484 C129.81251182 58.1239954 129.80401224 55.65491246 129.79101562 53.18359375 C129.79725139 51.598948 129.80564107 50.01430895 129.81640625 48.4296875 C129.81347061 47.69829559 129.81053497 46.96690369 129.80751038 46.21334839 C129.89363655 41.49784607 130.76534439 38.25650253 133.25 34.25 C137.32969997 30.56831954 139.71438458 29.12963012 145.15092468 29.09609985 C146.18691299 29.08749939 147.22290131 29.07889893 148.2902832 29.07003784 C149.43158691 29.06577789 150.57289063 29.06151794 151.7487793 29.05712891 C153.54651543 29.04486267 153.54651543 29.04486267 155.38056946 29.03234863 C159.36178247 29.0074595 163.34295742 28.99081755 167.32421875 28.9765625 C168.69539713 28.97120239 170.06657544 28.96582488 171.43775368 28.96043015 C177.14327807 28.93879805 182.84879964 28.92006307 188.55435467 28.90880775 C196.72612718 28.89258085 204.89742325 28.85943831 213.06901616 28.80240691 C218.81688904 28.76366253 224.56463476 28.74416961 230.31263477 28.73888719 C233.74421499 28.73523889 237.17528712 28.72327534 240.60672569 28.69078445 C244.43960199 28.65920908 248.27127612 28.65908586 252.10424805 28.66650391 C253.80102188 28.6418959 253.80102188 28.6418959 255.53207397 28.61679077 C262.47427429 28.67178483 266.07379923 29.53464597 271.25 34.25 C274.75433136 38.41950123 274.68883485 42.60731512 274.6484375 47.83984375 C274.65130768 48.66198868 274.65417786 49.48413361 274.65713501 50.33119202 C274.65917092 52.06512137 274.65367416 53.79907393 274.64111328 55.53295898 C274.62507287 58.17549473 274.64096678 60.81649637 274.66015625 63.45898438 C274.65817333 65.14844085 274.65432865 66.83789638 274.6484375 68.52734375 C274.65451019 69.31189438 274.66058289 70.09644501 274.6668396 70.9047699 C274.60531503 75.74656979 273.88425053 79.03876431 271.25 83.25 C266.72517396 87.5366773 262.41642256 89.509258 256.18432617 89.47705078 C255.20368698 89.47689972 254.22304779 89.47674866 253.21269226 89.47659302 C252.1666835 89.46627045 251.12067474 89.45594788 250.04296875 89.4453125 C248.96243729 89.4424826 247.88190582 89.43965271 246.76863098 89.43673706 C243.32480699 89.42556132 239.88124511 89.40046118 236.4375 89.375 C234.09961314 89.36496685 231.76172219 89.35584158 229.42382812 89.34765625 C223.69903705 89.32733395 217.97481119 89.28817955 212.25 89.25 C212.25 99.81 212.25 110.37 212.25 121.25 C217.66792969 121.18039062 217.66792969 121.18039062 223.1953125 121.109375 C226.70018102 121.07816471 230.20503396 121.05388518 233.70996094 121.03027344 C236.14264881 121.01017929 238.57528851 120.98289912 241.0078125 120.94824219 C244.50793355 120.8996294 248.00741502 120.87700861 251.5078125 120.859375 C252.59240753 120.83872986 253.67700256 120.81808472 254.79446411 120.79681396 C262.74870971 120.79445931 266.27153959 122.41873169 272.08569336 127.94555664 C274.87609367 132.20591402 274.96140557 135.14215183 274.87890625 140.12109375 C274.88131821 140.9616481 274.88373016 141.80220245 274.88621521 142.66822815 C274.88523937 144.43910456 274.87190868 146.21001247 274.84692383 147.98071289 C274.81264169 150.67635908 274.82627041 153.3687176 274.84570312 156.06445312 C274.83880283 157.79168049 274.82912878 159.51889946 274.81640625 161.24609375 C274.82136612 162.04421982 274.82632599 162.84234589 274.83143616 163.66465759 C274.71395615 169.30941337 273.67808311 172.70140512 270.25 177.25 C264.31185892 182.01053098 258.8095977 181.78214598 251.41015625 181.640625 C250.28806259 181.63496521 249.16596893 181.62930542 248.00987244 181.62347412 C244.44363849 181.60117341 240.87842772 181.55098649 237.3125 181.5 C234.88738435 181.47992695 232.46225288 181.4616776 230.03710938 181.4453125 C224.1073664 181.40473951 218.17982168 181.32643164 212.25 181.25 C212.25 192.14 212.25 203.03 212.25 214.25 C215.78976562 214.21519531 219.32953125 214.18039062 222.9765625 214.14453125 C226.41193841 214.12112253 229.84730538 214.10291337 233.28271484 214.08520508 C235.66687001 214.070136 238.05099753 214.04967709 240.43505859 214.02368164 C243.86562937 213.98721663 247.295833 213.97025448 250.7265625 213.95703125 C252.32064438 213.93380547 252.32064438 213.93380547 253.94692993 213.91011047 C260.25267276 213.90868247 265.06262059 214.27460782 269.89453125 218.78515625 C273.80697424 223.90142785 274.41765966 226.78124922 274.453125 233.109375 C274.45882507 233.89137268 274.46452515 234.67337036 274.47039795 235.47906494 C274.47985248 237.13674567 274.48638373 238.79444522 274.49023438 240.45214844 C274.49990897 242.97625059 274.53091411 245.49952761 274.5625 248.0234375 C274.56903335 249.63541184 274.57428252 251.247392 274.578125 252.859375 C274.5904718 253.60958923 274.6028186 254.35980347 274.61553955 255.13275146 C274.59243924 260.62736967 273.5177034 264.82072994 269.71484375 268.89453125 C265.54712606 272.08160949 263.54292542 273.37633725 258.34130859 273.36352539 C256.78851196 273.36334412 256.78851196 273.36334412 255.2043457 273.36315918 C254.113396 273.35804321 253.02244629 273.35292725 251.8984375 273.34765625 C250.8978833 273.34664917 249.8973291 273.34564209 248.86645508 273.34460449 C245.11929177 273.33936192 241.37214477 273.32540072 237.625 273.3125 C229.25125 273.291875 220.8775 273.27125 212.25 273.25 C212.58 291.73 212.91 310.21 213.25 329.25 C216.55 326.28 219.85 323.31 223.25 320.25 C227.85617439 317.94691281 229.35300085 318.04722828 234.25 319.25 C236.95567626 321.07339052 238.78728718 322.32457436 240.25 325.25 C240.80507299 331.02275915 239.89057481 333.76929254 236.25 338.25 C231.68266291 343.37584298 226.44320815 347.61284042 221.1015625 351.90234375 C217.41937625 354.93384229 213.92608608 358.14729686 210.44140625 361.40234375 C207.09979165 364.21978351 205.07624351 365.192018 200.6875 365.5 C195.20699659 364.64747725 191.94779233 360.7323451 188.11328125 357.00390625 C185.39065004 354.38527732 182.5831611 352.03334244 179.625 349.6875 C163.86059436 336.93122341 163.86059436 336.93122341 162.875 329.375 C163.42775683 324.76869305 165.432892 321.69115462 169.0625 318.8125 C172.39237987 317.95624518 174.90378633 318.52042721 178.25 319.25 C181.26953125 321.24609375 181.26953125 321.24609375 184.0625 323.6875 C184.99707031 324.49058594 185.93164062 325.29367187 186.89453125 326.12109375 C188.37867252 327.4624818 189.83543342 328.83543342 191.25 330.25 C191.58 311.44 191.91 292.63 192.25 273.25 C175.73581988 273.40808749 175.73581988 273.40808749 159.22216797 273.61035156 C157.14551618 273.62203855 155.06885521 273.63223035 152.9921875 273.640625 C151.92170166 273.66108887 150.85121582 273.68155273 149.74829102 273.70263672 C141.76827705 273.70636483 138.22718785 272.10424823 132.41210938 266.52929688 C129.67245853 262.37403602 129.55139458 259.6388643 129.65625 254.78125 C129.65620972 253.98271606 129.65616943 253.18418213 129.65612793 252.3614502 C129.66146688 250.6805022 129.67898008 248.99955347 129.70800781 247.31884766 C129.74987976 244.75735547 129.74907003 242.19849581 129.7421875 239.63671875 C129.75268121 237.99737771 129.76562029 236.35805012 129.78125 234.71875 C129.78145142 233.95921021 129.78165283 233.19967041 129.78186035 232.41711426 C129.90149287 226.99670107 130.95383952 222.70975461 134.78515625 218.60546875 C138.95287394 215.41839051 140.95707458 214.12366275 146.15869141 214.13647461 C147.17959869 214.13655014 148.20050598 214.13662567 149.25234985 214.13670349 C150.91021011 214.14444542 150.91021011 214.14444542 152.6015625 214.15234375 C154.29531509 214.15446617 154.29531509 214.15446617 156.02328491 214.15663147 C159.64054988 214.16224256 163.25775364 214.17479697 166.875 214.1875 C169.32291577 214.19251357 171.77083252 214.19707672 174.21875 214.20117188 C180.2292094 214.21136601 186.23953593 214.23093933 192.25 214.25 C192.25 203.36 192.25 192.47 192.25 181.25 C188.66125 181.31960938 185.0725 181.38921875 181.375 181.4609375 C177.88333312 181.50778518 174.3917018 181.54418563 170.89990234 181.57958984 C168.48079655 181.60968708 166.0617992 181.65057519 163.64306641 181.70263672 C160.15760489 181.77575829 156.67359094 181.80952867 153.1875 181.8359375 C152.11322754 181.86690521 151.03895508 181.89787292 149.93212891 181.92977905 C142.64080508 181.93301715 138.44037755 180.43425192 133.25 175.25 C129.36508254 170.63666051 130.25 169.06771758 130.25 162.25 C120.02 162.25 109.79 162.25 99.25 162.25 C99.27094727 165.93414062 99.29189453 169.61828125 99.31347656 173.4140625 C99.37978031 185.59171217 99.42415289 197.76934924 99.45724869 209.9471283 C99.47784763 217.32991761 99.50591683 224.71253555 99.55175781 232.09521484 C99.59170773 238.53222395 99.6174522 244.96910891 99.62635398 251.40623856 C99.63155505 254.81266913 99.64372278 258.21874461 99.67292023 261.62506104 C99.70199164 265.43384789 99.70595423 269.24190115 99.70410156 273.05078125 C99.72567322 274.7328492 99.72567322 274.7328492 99.74768066 276.44889832 C99.70698682 284.18956151 98.47273926 289.43587147 93.35546875 295.4921875 C92.72253906 296.03101563 92.08960938 296.56984375 91.4375 297.125 C90.81230469 297.67929687 90.18710937 298.23359375 89.54296875 298.8046875 C84.07866447 302.24896788 78.1306081 302.54322041 71.83804321 302.51742554 C70.60740585 302.52422221 70.60740585 302.52422221 69.35190713 302.53115618 C66.61687088 302.54376462 63.88203466 302.54218213 61.14697266 302.54052734 C59.18026983 302.54651476 57.21356935 302.55332079 55.24687195 302.56088257 C49.914195 302.57852666 44.58158227 302.58323724 39.24887896 302.58451414 C35.91515341 302.58593703 32.58144413 302.59020923 29.24772263 302.59550858 C17.61175248 302.61400258 5.97582811 302.62217985 -5.66015625 302.62060547 C-16.49778872 302.61940378 -27.33522214 302.64051313 -38.17280424 302.6720928 C-47.48596964 302.69826114 -56.79907003 302.70897255 -66.1122719 302.70769465 C-71.67092112 302.70718525 -77.22939332 302.71285692 -82.78800583 302.73405075 C-88.01657982 302.75344278 -93.24480807 302.75355085 -98.47339439 302.73901749 C-100.3885683 302.7369296 -102.30376392 302.74162904 -104.21890068 302.7537384 C-124.14614357 302.87154437 -124.14614357 302.87154437 -132.08984375 296.3203125 C-132.61707031 295.67835938 -133.14429688 295.03640625 -133.6875 294.375 C-134.23277344 293.73820312 -134.77804687 293.10140625 -135.33984375 292.4453125 C-138.95725746 286.81377094 -139.04028024 281.27585695 -139.01742554 274.81265259 C-139.02195665 273.86986997 -139.02648776 272.92708735 -139.03115618 271.95573556 C-139.04380347 268.80068125 -139.04217959 265.64579949 -139.04052734 262.49072266 C-139.04651234 260.2269824 -139.05331781 257.96324419 -139.06088257 255.69950867 C-139.07855161 249.55281772 -139.08323831 243.40618245 -139.08451414 237.25946856 C-139.08641364 232.12771274 -139.09377167 226.99596989 -139.10085833 221.86421907 C-139.11621296 210.44854203 -139.12219594 199.03290124 -139.12084763 187.61721654 C-139.12076772 186.93271477 -139.1206878 186.248213 -139.12060547 185.54296875 C-139.12052371 184.85762823 -139.12044195 184.17228771 -139.12035771 183.4661793 C-139.11954479 172.35918128 -139.13868565 161.25231886 -139.1668822 150.14536007 C-139.19562731 138.73198911 -139.20905556 127.31871174 -139.20769465 115.90529859 C-139.20718468 109.50103966 -139.21288744 103.09693424 -139.23405075 96.69270706 C-139.25341122 90.66965299 -139.25357234 84.64689926 -139.23901749 78.62383461 C-139.23692567 76.41475677 -139.24165241 74.20566023 -139.2537384 71.99661446 C-139.26918345 68.97782829 -139.2598871 65.96007868 -139.24447632 62.9413147 C-139.25476344 62.06990109 -139.26505057 61.19848748 -139.27564943 60.30066741 C-139.20002052 53.58361657 -137.42811655 48.35349972 -133.00390625 43.2265625 C-132.16666016 42.55753906 -132.16666016 42.55753906 -131.3125 41.875 C-130.75691406 41.41351563 -130.20132812 40.95203125 -129.62890625 40.4765625 C-124.69314085 37.25446201 -120.15595913 36.97649749 -114.38671875 37.0546875 C-113.59473587 37.0575174 -112.80275299 37.06034729 -111.98677063 37.06326294 C-109.47019001 37.07441137 -106.95397211 37.09950578 -104.4375 37.125 C-102.72591662 37.13503671 -101.01432763 37.14416136 -99.30273438 37.15234375 C-95.11835094 37.17433319 -90.93423686 37.20882592 -86.75 37.25 C-86.77102783 36.63439209 -86.79205566 36.01878418 -86.8137207 35.38452148 C-86.83007568 34.57571533 -86.84643066 33.76690918 -86.86328125 32.93359375 C-86.88430908 32.13236084 -86.90533691 31.33112793 -86.92700195 30.50561523 C-86.66161284 27.12364282 -85.16325127 25.5253512 -82.75 23.25 C-79.36194839 20.99129892 -77.97649259 20.95740587 -73.98828125 20.8359375 C-72.31088867 20.77792969 -72.31088867 20.77792969 -70.59960938 20.71875 C-69.43236328 20.6878125 -68.26511719 20.656875 -67.0625 20.625 C-65.29422852 20.56699219 -65.29422852 20.56699219 -63.49023438 20.5078125 C-60.57698023 20.41345609 -57.66373393 20.32786839 -54.75 20.25 C-54.37198242 19.41090088 -53.99396484 18.57180176 -53.60449219 17.70727539 C-48.49046028 6.54176195 -42.24834525 -0.19368292 -30.75 -4.75 C-20.36247033 -8.02478345 -9.03400404 -5.64059685 0 0 Z " fill="#FD8832" transform="translate(445.75,202.75)"/>
<path d="M0 0 C1.20970459 0.00523682 2.41940918 0.01047363 3.66577148 0.01586914 C4.97094727 0.0190918 6.27612305 0.02231445 7.62084961 0.02563477 C9.00952213 0.03399138 10.39819401 0.04245634 11.78686523 0.05102539 C13.17944179 0.05603873 14.57202005 0.06060193 15.96459961 0.06469727 C19.38456394 0.07653105 22.80444367 0.09301659 26.22436523 0.11352539 C26.29913086 0.71680664 26.37389648 1.32008789 26.45092773 1.94165039 C26.6481543 3.14047852 26.6481543 3.14047852 26.84936523 4.36352539 C27.02338867 5.54688477 27.02338867 5.54688477 27.20092773 6.75415039 C28.67874765 10.16103293 30.88988332 11.71007875 34.22436523 13.11352539 C38.00708592 13.68849382 41.74641685 13.63969261 45.56640625 13.59936523 C46.7004187 13.60316193 47.83443115 13.60695862 49.00280762 13.61087036 C52.74491176 13.61826954 56.48623654 13.59690216 60.22827148 13.57446289 C62.83088591 13.57207815 65.43350208 13.57117321 68.03611755 13.57168579 C73.4875555 13.56981558 78.93877013 13.55248875 84.39013672 13.52514648 C90.68634421 13.49368281 96.98230744 13.48315101 103.27858788 13.48461759 C109.34520262 13.48583967 115.41171814 13.47539845 121.47831535 13.45903397 C124.05593322 13.45266729 126.63355825 13.44872738 129.21118355 13.44724655 C132.81148632 13.44291324 136.41148192 13.42541143 140.01171875 13.40405273 C141.07835251 13.40495911 142.14498627 13.40586548 143.24394226 13.40679932 C144.22660065 13.39826935 145.20925903 13.38973938 146.22169495 13.38095093 C147.49728948 13.3759234 147.49728948 13.3759234 148.7986536 13.3707943 C151.59499137 13.0742171 153.70232771 12.34770289 156.22436523 11.11352539 C158.9758832 7.57585944 159.57340372 4.47737852 160.22436523 0.11352539 C164.33609083 0.08886793 168.44778801 0.0706858 172.55957031 0.05859375 C173.95931752 0.0535546 175.35905944 0.04672323 176.75878906 0.03808594 C178.766823 0.02600219 180.77489481 0.02082732 182.78295898 0.01586914 C184.59751587 0.00801392 184.59751587 0.00801392 186.44873047 0 C189.22436523 0.11352539 189.22436523 0.11352539 190.22436523 1.11352539 C190.32450518 3.94332534 190.35875565 6.74879299 190.35134888 9.57910156 C190.35290887 10.47763194 190.35446886 11.37616232 190.35607612 12.30192089 C190.36009017 15.33679493 190.35689492 18.37161965 190.35375977 21.40649414 C190.35511363 23.57247955 190.35689347 25.73846473 190.35906982 27.90444946 C190.36364596 33.80510136 190.36185386 39.70573587 190.35869074 45.60638809 C190.35616806 51.76656391 190.35850442 57.92673819 190.3600769 64.08691406 C190.36189887 74.43400339 190.35949158 84.78108558 190.35473633 95.12817383 C190.34929366 107.10979225 190.35105629 119.09138615 190.35656273 131.07300472 C190.36109309 141.33962367 190.36174479 151.60623747 190.35912406 161.87285709 C190.35756086 168.01366009 190.3573687 174.15445508 190.36066055 180.29525757 C190.36353815 186.0669777 190.36156564 191.83867579 190.3557663 197.61039352 C190.3544381 199.73532449 190.35483382 201.86025729 190.35702896 203.98518753 C190.35973813 206.87280026 190.35636222 209.76034114 190.35134888 212.64794922 C190.3535796 213.50036288 190.35581032 214.35277655 190.35810864 215.23102093 C190.33851506 220.99937557 190.33851506 220.99937557 189.22436523 222.11352539 C186.74774298 222.21345549 184.2989472 222.24794161 181.82177734 222.24050903 C181.03758643 222.24206902 180.25339552 222.24362901 179.44544125 222.24523628 C176.79751181 222.24924942 174.14963893 222.24605543 171.50170898 222.24291992 C169.61158209 222.24427382 167.72145547 222.24605369 165.83132935 222.24822998 C160.68271875 222.25280564 155.53412809 222.25101421 150.38551712 222.24785089 C145.01010329 222.24532797 139.63469123 222.24766464 134.25927734 222.24923706 C125.23038423 222.25105896 116.20149929 222.24865193 107.17260742 222.24389648 C96.71787455 222.23845383 86.26316117 222.24021647 75.80842876 222.24572289 C66.8496544 222.25025345 57.89088592 222.25090485 48.93211079 222.24828422 C43.57378634 222.24672113 38.21547108 222.24652854 32.85714722 222.24982071 C27.82084104 222.2526986 22.78456012 222.25072524 17.74825668 222.24492645 C15.8942354 222.24359841 14.04021201 222.24399371 12.18619156 222.24618912 C9.66641621 222.24889891 7.14672315 222.24552161 4.62695312 222.24050903 C3.88348601 222.24273975 3.1400189 222.24497048 2.37402248 222.2472688 C-2.66148491 222.22767524 -2.66148491 222.22767524 -3.77563477 221.11352539 C-3.87577471 218.28372544 -3.91002518 215.47825779 -3.90261841 212.64794922 C-3.9041784 211.74941884 -3.90573839 210.85088846 -3.90734565 209.92512989 C-3.9113597 206.89025585 -3.90816445 203.85543113 -3.9050293 200.82055664 C-3.90638316 198.65457123 -3.908163 196.48858606 -3.91033936 194.32260132 C-3.91491549 188.42194942 -3.91312339 182.52131491 -3.90996027 176.62066269 C-3.90743759 170.46048687 -3.90977395 164.30031259 -3.91134644 158.14013672 C-3.9131684 147.79304739 -3.91076111 137.4459652 -3.90600586 127.09887695 C-3.90056319 115.11725853 -3.90232583 103.13566463 -3.90783226 91.15404606 C-3.91236262 80.88742711 -3.91301432 70.62081331 -3.9103936 60.35419369 C-3.90883039 54.21339069 -3.90863823 48.0725957 -3.91193008 41.93179321 C-3.91480768 36.16007308 -3.91283517 30.38837499 -3.90703583 24.61665726 C-3.90570763 22.4917263 -3.90610335 20.36679349 -3.90829849 18.24186325 C-3.91100766 15.35425052 -3.90763175 12.46670964 -3.90261841 9.57910156 C-3.90484913 8.7266879 -3.90707985 7.87427423 -3.90937817 6.99602985 C-3.8861544 0.15894642 -3.8861544 0.15894642 0 0 Z " fill="#6BB5FE" transform="translate(332.775634765625,260.886474609375)"/>
<path d="M0 0 C6.57982238 4.71147776 11.42476298 10.605241 14.25 18.25 C14.25 19.24 14.25 20.23 14.25 21.25 C14.98114014 21.23428955 15.71228027 21.2185791 16.46557617 21.20239258 C19.7894716 21.13989649 23.1132432 21.10096248 26.4375 21.0625 C28.16323242 21.02479492 28.16323242 21.02479492 29.92382812 20.98632812 C31.59155273 20.97182617 31.59155273 20.97182617 33.29296875 20.95703125 C34.31414795 20.9413208 35.33532715 20.92561035 36.38745117 20.90942383 C39.73045786 21.30716322 41.55533687 22.26166212 44.25 24.25 C47.20268387 28.72993415 47.36858189 31.98246747 47.25 37.25 C48.82297852 37.2185791 48.82297852 37.2185791 50.42773438 37.18652344 C54.34881735 37.11367508 58.26984149 37.06803889 62.19140625 37.03027344 C63.88291511 37.0102594 65.57435567 36.98303927 67.265625 36.94824219 C69.70850554 36.89926935 72.15046511 36.87692967 74.59375 36.859375 C75.33991577 36.83872986 76.08608154 36.81808472 76.8548584 36.79681396 C83.27740558 36.79411949 88.3578051 38.80447613 93.2734375 42.9609375 C93.71945312 43.51007813 94.16546875 44.05921875 94.625 44.625 C95.31722656 45.44097656 95.31722656 45.44097656 96.0234375 46.2734375 C99.35828735 51.6474312 99.53189564 56.89753235 99.47705078 63.00927734 C99.47734283 63.86846771 99.47763489 64.72765808 99.47793579 65.61288452 C99.47654853 68.4373402 99.46101584 71.26152821 99.4453125 74.0859375 C99.44158022 76.05034237 99.43873426 78.0147491 99.43673706 79.97915649 C99.42911753 85.13797181 99.40948345 90.29667369 99.3873291 95.45544434 C99.36683447 100.72418687 99.35772761 105.99294781 99.34765625 111.26171875 C99.32623597 121.59120357 99.29106751 131.92057459 99.25 142.25 C109.48 142.25 119.71 142.25 130.25 142.25 C130.25 148.85 130.25 155.45 130.25 162.25 C120.02 162.25 109.79 162.25 99.25 162.25 C99.27094727 165.93414062 99.29189453 169.61828125 99.31347656 173.4140625 C99.37978031 185.59171217 99.42415289 197.76934924 99.45724869 209.9471283 C99.47784763 217.32991761 99.50591683 224.71253555 99.55175781 232.09521484 C99.59170773 238.53222395 99.6174522 244.96910891 99.62635398 251.40623856 C99.63155505 254.81266913 99.64372278 258.21874461 99.67292023 261.62506104 C99.70199164 265.43384789 99.70595423 269.24190115 99.70410156 273.05078125 C99.72567322 274.7328492 99.72567322 274.7328492 99.74768066 276.44889832 C99.70698682 284.18956151 98.47273926 289.43587147 93.35546875 295.4921875 C92.72253906 296.03101563 92.08960938 296.56984375 91.4375 297.125 C90.81230469 297.67929687 90.18710937 298.23359375 89.54296875 298.8046875 C84.07866447 302.24896788 78.1306081 302.54322041 71.83804321 302.51742554 C70.60740585 302.52422221 70.60740585 302.52422221 69.35190713 302.53115618 C66.61687088 302.54376462 63.88203466 302.54218213 61.14697266 302.54052734 C59.18026983 302.54651476 57.21356935 302.55332079 55.24687195 302.56088257 C49.914195 302.57852666 44.58158227 302.58323724 39.24887896 302.58451414 C35.91515341 302.58593703 32.58144413 302.59020923 29.24772263 302.59550858 C17.61175248 302.61400258 5.97582811 302.62217985 -5.66015625 302.62060547 C-16.49778872 302.61940378 -27.33522214 302.64051313 -38.17280424 302.6720928 C-47.48596964 302.69826114 -56.79907003 302.70897255 -66.1122719 302.70769465 C-71.67092112 302.70718525 -77.22939332 302.71285692 -82.78800583 302.73405075 C-88.01657982 302.75344278 -93.24480807 302.75355085 -98.47339439 302.73901749 C-100.3885683 302.7369296 -102.30376392 302.74162904 -104.21890068 302.7537384 C-124.14614357 302.87154437 -124.14614357 302.87154437 -132.08984375 296.3203125 C-132.61707031 295.67835938 -133.14429688 295.03640625 -133.6875 294.375 C-134.23277344 293.73820312 -134.77804687 293.10140625 -135.33984375 292.4453125 C-138.95725746 286.81377094 -139.04028024 281.27585695 -139.01742554 274.81265259 C-139.02195665 273.86986997 -139.02648776 272.92708735 -139.03115618 271.95573556 C-139.04380347 268.80068125 -139.04217959 265.64579949 -139.04052734 262.49072266 C-139.04651234 260.2269824 -139.05331781 257.96324419 -139.06088257 255.69950867 C-139.07855161 249.55281772 -139.08323831 243.40618245 -139.08451414 237.25946856 C-139.08641364 232.12771274 -139.09377167 226.99596989 -139.10085833 221.86421907 C-139.11621296 210.44854203 -139.12219594 199.03290124 -139.12084763 187.61721654 C-139.12076772 186.93271477 -139.1206878 186.248213 -139.12060547 185.54296875 C-139.12052371 184.85762823 -139.12044195 184.17228771 -139.12035771 183.4661793 C-139.11954479 172.35918128 -139.13868565 161.25231886 -139.1668822 150.14536007 C-139.19562731 138.73198911 -139.20905556 127.31871174 -139.20769465 115.90529859 C-139.20718468 109.50103966 -139.21288744 103.09693424 -139.23405075 96.69270706 C-139.25341122 90.66965299 -139.25357234 84.64689926 -139.23901749 78.62383461 C-139.23692567 76.41475677 -139.24165241 74.20566023 -139.2537384 71.99661446 C-139.26918345 68.97782829 -139.2598871 65.96007868 -139.24447632 62.9413147 C-139.25476344 62.06990109 -139.26505057 61.19848748 -139.27564943 60.30066741 C-139.20002052 53.58361657 -137.42811655 48.35349972 -133.00390625 43.2265625 C-132.16666016 42.55753906 -132.16666016 42.55753906 -131.3125 41.875 C-130.75691406 41.41351563 -130.20132812 40.95203125 -129.62890625 40.4765625 C-124.69314085 37.25446201 -120.15595913 36.97649749 -114.38671875 37.0546875 C-113.59473587 37.0575174 -112.80275299 37.06034729 -111.98677063 37.06326294 C-109.47019001 37.07441137 -106.95397211 37.09950578 -104.4375 37.125 C-102.72591662 37.13503671 -101.01432763 37.14416136 -99.30273438 37.15234375 C-95.11835094 37.17433319 -90.93423686 37.20882592 -86.75 37.25 C-86.77102783 36.63439209 -86.79205566 36.01878418 -86.8137207 35.38452148 C-86.83007568 34.57571533 -86.84643066 33.76690918 -86.86328125 32.93359375 C-86.88430908 32.13236084 -86.90533691 31.33112793 -86.92700195 30.50561523 C-86.66161284 27.12364282 -85.16325127 25.5253512 -82.75 23.25 C-79.36194839 20.99129892 -77.97649259 20.95740587 -73.98828125 20.8359375 C-72.31088867 20.77792969 -72.31088867 20.77792969 -70.59960938 20.71875 C-69.43236328 20.6878125 -68.26511719 20.656875 -67.0625 20.625 C-65.29422852 20.56699219 -65.29422852 20.56699219 -63.49023438 20.5078125 C-60.57698023 20.41345609 -57.66373393 20.32786839 -54.75 20.25 C-54.37198242 19.41090088 -53.99396484 18.57180176 -53.60449219 17.70727539 C-48.49046028 6.54176195 -42.24834525 -0.19368292 -30.75 -4.75 C-20.36247033 -8.02478345 -9.03400404 -5.64059685 0 0 Z M-116.75 59.25 C-116.85013994 62.07979995 -116.88439041 64.8852676 -116.87698364 67.71557617 C-116.87854363 68.61410655 -116.88010362 69.51263693 -116.88171089 70.4383955 C-116.88572494 73.47326954 -116.88252968 76.50809426 -116.87939453 79.54296875 C-116.88074839 81.70895416 -116.88252824 83.87493934 -116.88470459 86.04092407 C-116.88928072 91.94157597 -116.88748863 97.84221048 -116.8843255 103.7428627 C-116.88180283 109.90303852 -116.88413918 116.0632128 -116.88571167 122.22338867 C-116.88753364 132.570478 -116.88512635 142.91756019 -116.88037109 153.26464844 C-116.87492842 165.24626686 -116.87669106 177.22786076 -116.8821975 189.20947933 C-116.88672786 199.47609828 -116.88737956 209.74271208 -116.88475883 220.0093317 C-116.88319563 226.1501347 -116.88300346 232.29092969 -116.88629532 238.43173218 C-116.88917291 244.20345231 -116.8872004 249.9751504 -116.88140106 255.74686813 C-116.88007286 257.8717991 -116.88046859 259.9967319 -116.88266373 262.12166214 C-116.88537289 265.00927487 -116.88199699 267.89681575 -116.87698364 270.78442383 C-116.87921436 271.63683749 -116.88144509 272.48925116 -116.88374341 273.36749554 C-117.2330663 277.11334577 -117.2330663 277.11334577 -115.75 280.25 C-113.27337775 280.3499301 -110.82458196 280.38441622 -108.34741211 280.37698364 C-107.17112574 280.37932363 -107.17112574 280.37932363 -105.97107601 280.38171089 C-103.32314657 280.38572403 -100.67527369 280.38253004 -98.02734375 280.37939453 C-96.13721686 280.38074843 -94.24709023 280.3825283 -92.35696411 280.38470459 C-87.20835351 280.38928024 -82.05976285 280.38748882 -76.91115189 280.3843255 C-71.53573806 280.38180258 -66.160326 280.38413925 -60.78491211 280.38571167 C-51.756019 280.38753357 -42.72713406 280.38512654 -33.69824219 280.38037109 C-23.24350931 280.37492844 -12.78879593 280.37669108 -2.33406353 280.3821975 C6.62471083 280.38672806 15.58347931 280.38737946 24.54225445 280.38475883 C29.90057889 280.38319574 35.25889416 280.38300315 40.61721802 280.38629532 C45.6535242 280.38917321 50.68980512 280.38719985 55.72610855 280.38140106 C57.58012983 280.38007302 59.43415322 280.38046832 61.28817368 280.38266373 C63.80794903 280.38537352 66.32764208 280.38199622 68.84741211 280.37698364 C69.59087922 280.37921436 70.33434633 280.38144509 71.10034275 280.38374341 C74.46055455 280.66721387 74.46055455 280.66721387 77.25 279.25 C77.35013994 276.42020005 77.38439041 273.6147324 77.37698364 270.78442383 C77.37854363 269.88589345 77.38010362 268.98736307 77.38171089 268.0616045 C77.38572494 265.02673046 77.38252968 261.99190574 77.37939453 258.95703125 C77.38074839 256.79104584 77.38252824 254.62506066 77.38470459 252.45907593 C77.38928072 246.55842403 77.38748863 240.65778952 77.3843255 234.7571373 C77.38180283 228.59696148 77.38413918 222.4367872 77.38571167 216.27661133 C77.38753364 205.929522 77.38512635 195.58243981 77.38037109 185.23535156 C77.37492842 173.25373314 77.37669106 161.27213924 77.3821975 149.29052067 C77.38672786 139.02390172 77.38737956 128.75728792 77.38475883 118.4906683 C77.38319563 112.3498653 77.38300346 106.20907031 77.38629532 100.06826782 C77.38917291 94.29654769 77.3872004 88.5248496 77.38140106 82.75313187 C77.38007286 80.6282009 77.38046859 78.5032681 77.38266373 76.37833786 C77.38537289 73.49072513 77.38199699 70.60318425 77.37698364 67.71557617 C77.37921436 66.86316251 77.38144509 66.01074884 77.38374341 65.13250446 C77.7330663 61.38665423 77.7330663 61.38665423 76.25 58.25 C74.10441173 58.16224395 71.95595579 58.14304781 69.80859375 58.15234375 C68.50341797 58.15556641 67.19824219 58.15878906 65.85351562 58.16210938 C64.4648431 58.17046599 63.07617123 58.17893095 61.6875 58.1875 C60.29492344 58.19251334 58.90234519 58.19707653 57.50976562 58.20117188 C54.0898013 58.21300566 50.66992156 58.2294912 47.25 58.25 C46.95996094 59.51972656 46.66992188 60.78945313 46.37109375 62.09765625 C45.50993976 65.86759705 44.41155472 67.85488279 41.25 70.25 C38.35304183 71.21565272 36.50098278 71.38206188 33.48783875 71.39717102 C32.01797516 71.40790398 32.01797516 71.40790398 30.51841736 71.41885376 C28.90768089 71.42288712 28.90768089 71.42288712 27.2644043 71.42700195 C26.13243622 71.43357315 25.00046814 71.44014435 23.834198 71.44691467 C20.08087094 71.46665742 16.32758389 71.47831169 12.57421875 71.48828125 C11.29364908 71.49235678 10.01307941 71.4964323 8.69370461 71.50063133 C2.61644415 71.51934325 -3.46079622 71.53390902 -9.53807956 71.5422433 C-16.54730473 71.55201508 -23.55621405 71.57833551 -30.56532794 71.61874419 C-36.64098563 71.65256641 -42.7165107 71.66439015 -48.79225731 71.66844749 C-51.3746575 71.67332417 -53.95705406 71.68496869 -56.53939247 71.70348549 C-60.15192568 71.72778186 -63.76363113 71.72692888 -67.3762207 71.7199707 C-68.44397232 71.73278076 -69.51172394 71.74559082 -70.61183167 71.75878906 C-76.61366449 71.71662298 -80.21675102 71.33049143 -84.75 67.25 C-85.7734375 64.890625 -85.7734375 64.890625 -86.125 62.5 C-86.32222656 61.30117188 -86.32222656 61.30117188 -86.5234375 60.078125 C-86.59820312 59.47484375 -86.67296875 58.8715625 -86.75 58.25 C-90.8617256 58.22534254 -94.97342278 58.20716041 -99.08520508 58.19506836 C-100.48495228 58.1900292 -101.8846942 58.18319784 -103.28442383 58.17456055 C-105.29245777 58.1624768 -107.30052957 58.15730193 -109.30859375 58.15234375 C-110.51829834 58.14710693 -111.72800293 58.14187012 -112.97436523 58.13647461 C-115.65812017 57.93224715 -115.65812017 57.93224715 -116.75 59.25 Z " fill="#06315D" transform="translate(445.75,202.75)"/>
<path d="M0 0 C6.6 0 13.2 0 20 0 C20 11.22 20 22.44 20 34 C23.53976562 33.96519531 27.07953125 33.93039062 30.7265625 33.89453125 C34.16193841 33.87112253 37.59730538 33.85291337 41.03271484 33.83520508 C43.41687001 33.820136 45.80099753 33.79967709 48.18505859 33.77368164 C51.61562937 33.73721663 55.045833 33.72025448 58.4765625 33.70703125 C60.07064438 33.68380547 60.07064438 33.68380547 61.69692993 33.66011047 C68.00267276 33.65868247 72.81262059 34.02460782 77.64453125 38.53515625 C81.55697424 43.65142785 82.16765966 46.53124922 82.203125 52.859375 C82.20882507 53.64137268 82.21452515 54.42337036 82.22039795 55.22906494 C82.22985248 56.88674567 82.23638373 58.54444522 82.24023438 60.20214844 C82.24990897 62.72625059 82.28091411 65.24952761 82.3125 67.7734375 C82.31903335 69.38541184 82.32428252 70.997392 82.328125 72.609375 C82.3404718 73.35958923 82.3528186 74.10980347 82.36553955 74.88275146 C82.34243924 80.37736967 81.2677034 84.57072994 77.46484375 88.64453125 C73.29712606 91.83160949 71.29292542 93.12633725 66.09130859 93.11352539 C65.05611084 93.11340454 64.02091309 93.11328369 62.9543457 93.11315918 C61.863396 93.10804321 60.77244629 93.10292725 59.6484375 93.09765625 C58.6478833 93.09664917 57.6473291 93.09564209 56.61645508 93.09460449 C52.86929177 93.08936192 49.12214477 93.07540072 45.375 93.0625 C37.00125 93.041875 28.6275 93.02125 20 93 C20.33 111.48 20.66 129.96 21 149 C24.3 146.03 27.6 143.06 31 140 C35.60617439 137.69691281 37.10300085 137.79722828 42 139 C44.70567626 140.82339052 46.53728718 142.07457436 48 145 C48.55507299 150.77275915 47.64057481 153.51929254 44 158 C39.43266291 163.12584298 34.19320815 167.36284042 28.8515625 171.65234375 C25.16937625 174.68384229 21.67608608 177.89729686 18.19140625 181.15234375 C14.84979165 183.96978351 12.82624351 184.942018 8.4375 185.25 C2.95699659 184.39747725 -0.30220767 180.4823451 -4.13671875 176.75390625 C-6.85934996 174.13527732 -9.6668389 171.78334244 -12.625 169.4375 C-28.38940564 156.68122341 -28.38940564 156.68122341 -29.375 149.125 C-28.82224317 144.51869305 -26.817108 141.44115462 -23.1875 138.5625 C-19.85762013 137.70624518 -17.34621367 138.27042721 -14 139 C-10.98046875 140.99609375 -10.98046875 140.99609375 -8.1875 143.4375 C-7.25292969 144.24058594 -6.31835938 145.04367187 -5.35546875 145.87109375 C-3.87132748 147.2124818 -2.41456658 148.58543342 -1 150 C-0.67 131.19 -0.34 112.38 0 93 C-16.51418012 93.15808749 -16.51418012 93.15808749 -33.02783203 93.36035156 C-35.10448382 93.37203855 -37.18114479 93.38223035 -39.2578125 93.390625 C-40.32829834 93.41108887 -41.39878418 93.43155273 -42.50170898 93.45263672 C-50.48172295 93.45636483 -54.02281215 91.85424823 -59.83789062 86.27929688 C-62.57754147 82.12403602 -62.69860542 79.3888643 -62.59375 74.53125 C-62.59379028 73.73271606 -62.59383057 72.93418213 -62.59387207 72.1114502 C-62.58853312 70.4305022 -62.57101992 68.74955347 -62.54199219 67.06884766 C-62.50012024 64.50735547 -62.50092997 61.94849581 -62.5078125 59.38671875 C-62.49731879 57.74737771 -62.48437971 56.10805012 -62.46875 54.46875 C-62.46854858 53.70921021 -62.46834717 52.94967041 -62.46813965 52.16711426 C-62.34850713 46.74670107 -61.29616048 42.45975461 -57.46484375 38.35546875 C-53.29712606 35.16839051 -51.29292542 33.87366275 -46.09130859 33.88647461 C-45.07040131 33.88655014 -44.04949402 33.88662567 -42.99765015 33.88670349 C-41.33978989 33.89444542 -41.33978989 33.89444542 -39.6484375 33.90234375 C-38.5192691 33.9037587 -37.39010071 33.90517365 -36.22671509 33.90663147 C-32.60945012 33.91224256 -28.99224636 33.92479697 -25.375 33.9375 C-22.92708423 33.94251357 -20.47916748 33.94707672 -18.03125 33.95117188 C-12.0207906 33.96136601 -6.01046407 33.98093933 0 34 C0 22.78 0 11.56 0 0 Z " fill="#35D17F" transform="translate(638,383)"/>
<path d="M0 0 C1.75713066 -0.01029488 1.75713066 -0.01029488 3.54975891 -0.02079773 C7.4167599 -0.03907925 11.28335575 -0.03522644 15.15039062 -0.02954102 C17.16031068 -0.03201741 19.17022079 -0.03636447 21.18013716 -0.04089409 C27.49562432 -0.05492259 33.81097615 -0.05339157 40.12646484 -0.04199219 C46.63292454 -0.03050735 53.13897221 -0.04459617 59.64537764 -0.07138866 C65.24132924 -0.09356572 70.83715168 -0.10017872 76.43314409 -0.09431225 C79.77123641 -0.09094677 83.10885347 -0.09504416 86.44694519 -0.11056328 C90.16936966 -0.12543217 93.89088532 -0.11482519 97.61328125 -0.09765625 C98.71372269 -0.10732422 99.81416412 -0.11699219 100.94795227 -0.12695312 C109.07565222 -0.04841355 112.25162028 1.500008 118.14233398 7.09960938 C120.93273429 11.35996676 121.01804619 14.29620456 120.93554688 19.27514648 C120.93795883 20.11570084 120.94037079 20.95625519 120.94285583 21.82228088 C120.94188 23.59315729 120.9285493 25.36406521 120.90356445 27.13476562 C120.86928231 29.83041181 120.88291104 32.52277033 120.90234375 35.21850586 C120.89544345 36.94573322 120.8857694 38.67295219 120.87304688 40.40014648 C120.87800674 41.19827255 120.88296661 41.99639862 120.88807678 42.81871033 C120.77059677 48.46346611 119.73472374 51.85545785 116.30664062 56.40405273 C110.19022117 60.9567433 104.90516139 60.98690341 97.43969727 60.95336914 C96.26158981 60.963591 95.08348236 60.97381287 93.86967468 60.98434448 C90.65458429 61.00730624 87.44013673 61.01229626 84.22498631 61.00721788 C81.53374061 61.00507012 78.84258879 61.01486625 76.15136331 61.02442873 C69.79883469 61.04657572 63.44654264 61.04751825 57.09399414 61.03540039 C50.55613089 61.02332022 44.01912842 61.04795216 37.48141199 61.09054053 C31.85311141 61.12584675 26.22508392 61.13776385 20.59667677 61.13126504 C17.24155381 61.12765075 13.88753412 61.13544489 10.53242683 61.16069412 C6.78860563 61.18541302 3.04676876 61.17184935 -0.69702148 61.14868164 C-1.79805206 61.16396912 -2.89908264 61.17925659 -4.03347778 61.19500732 C-11.28556046 61.09598459 -15.52248002 59.5565461 -20.69335938 54.40405273 C-24.170651 50.26606276 -24.1749813 46.09303639 -24.19726562 40.88452148 C-24.20725082 40.0671199 -24.21723602 39.24971832 -24.2275238 38.407547 C-24.2426723 36.68206828 -24.24975061 34.95650217 -24.24926758 33.23095703 C-24.25581474 30.60942383 -24.31028188 27.99171081 -24.3671875 25.37084961 C-24.52386442 10.26209801 -24.52386442 10.26209801 -19.57202148 4.77246094 C-13.1332807 0.08251395 -7.71734415 -0.03156985 0 0 Z " fill="#FDC63E" transform="translate(599.693359375,323.595947265625)"/>
<path d="M0 0 C8.54169554 7.6533592 14.38620678 17.51850996 15.13916016 29.1496582 C15.72809615 43.8571016 15.10516135 56.76582036 6 69 C5.29875 70.010625 4.5975 71.02125 3.875 72.0625 C-2.55491769 79.43681185 -13.42997409 85.21213805 -23.14404297 86.22314453 C-38.03970895 87.209592 -50.35485996 84.91702482 -62 75 C-72.63369383 65.11384177 -76.80200676 53.15729211 -77.33422852 38.89892578 C-77.60582778 24.16751162 -73.29300806 12.71819351 -63.375 1.8125 C-46.33890357 -14.53823623 -18.20812966 -14.05752439 0 0 Z " fill="#07325D" transform="translate(733,757)"/>
<path d="M0 0 C8.58 0 17.16 0 26 0 C26.99902344 4.10308594 27.99804688 8.20617187 29.02734375 12.43359375 C29.82404155 15.69703294 30.62145287 18.96029592 31.41934967 22.22344208 C32.26246164 25.67235663 33.10430195 29.1215704 33.94311523 32.5715332 C34.90477833 36.52651581 35.87214541 40.48008347 36.83984375 44.43359375 C37.14091537 45.67523788 37.441987 46.91688202 37.75218201 48.19615173 C38.1725045 49.90781273 38.1725045 49.90781273 38.60131836 51.65405273 C38.84780624 52.664431 39.09429413 53.67480927 39.34825134 54.71580505 C39.78473324 56.94671782 39.78473324 56.94671782 41 58 C41.18347992 57.34711502 41.36695984 56.69423004 41.55599976 56.02156067 C43.4669916 49.22365111 45.38180176 42.42682545 47.29882812 35.63061523 C48.0136751 33.09443286 48.72754955 30.55797616 49.44042969 28.02124023 C50.46553808 24.37411016 51.49414504 20.72798239 52.5234375 17.08203125 C52.84122162 15.94852737 53.15900574 14.8150235 53.48641968 13.64717102 C53.7865799 12.58644882 54.08674011 11.52572662 54.39599609 10.43286133 C54.65802826 9.50242508 54.92006042 8.57198883 55.19003296 7.61335754 C55.99085926 5.02949259 56.9953432 2.51164201 58 0 C64.6 0 71.2 0 78 0 C82.33839281 13.44901772 86.3235961 26.96828893 90.16796875 40.56640625 C91.72341283 46.06143864 93.33652848 51.53675202 95 57 C96.61710936 54.02004801 97.58069518 51.18087322 98.40454102 47.89599609 C98.66143204 46.88169525 98.91832306 45.86739441 99.18299866 44.82235718 C99.58934792 43.18939194 99.58934792 43.18939194 100.00390625 41.5234375 C100.28725327 40.40184235 100.57060028 39.28024719 100.86253357 38.12466431 C101.76689577 34.54252791 102.66508829 30.95888342 103.5625 27.375 C104.46428188 23.78418564 105.36739018 20.19371833 106.2731781 16.60391235 C106.8366275 14.36982708 107.39761539 12.13511932 107.95594788 9.89974976 C108.20968674 8.89175323 108.4634256 7.88375671 108.72485352 6.84521484 C108.9475441 5.95571136 109.17023468 5.06620789 109.39967346 4.14974976 C110 2 110 2 111 0 C118.92 0 126.84 0 135 0 C132.1976597 11.48387615 129.10543037 22.84051001 125.796875 34.1875 C125.30908894 35.86849624 124.82156553 37.54956872 124.33428955 39.23071289 C123.06778628 43.59768258 121.79778331 47.96362643 120.52697754 52.3293457 C119.22414837 56.80747556 117.92472991 61.28659484 116.625 65.765625 C114.08661717 74.51137369 111.54421015 83.25594475 109 92 C100.75 92 92.5 92 84 92 C78.440645 74.73051424 73.1707189 57.38872692 68 40 C66.45447223 42.89520153 65.39967083 45.71022805 64.48779297 48.86035156 C64.2076535 49.82104553 63.92751404 50.7817395 63.6388855 51.77154541 C63.34297516 52.80084167 63.04706482 53.83013794 62.7421875 54.890625 C62.43427277 55.95037537 62.12635803 57.01012573 61.80911255 58.10198975 C60.82746312 61.48362481 59.85116912 64.86677934 58.875 68.25 C58.2099878 70.544373 57.54462739 72.8386451 56.87890625 75.1328125 C55.24790551 80.75386743 53.62415534 86.37694523 52 92 C43.42 92 34.84 92 26 92 C25.04480469 88.68710937 24.08960938 85.37421875 23.10546875 81.9609375 C22.477966 79.78498771 21.85044563 77.609043 21.22290039 75.43310547 C19.86102761 70.71088475 18.4996048 65.98853459 17.13842773 61.26611328 C13.9554821 50.22608661 10.76798127 39.18748614 7.5546875 28.15625 C7.04009525 26.38753988 6.52552734 24.61882268 6.01098633 22.85009766 C5.06055122 19.58330612 4.10671331 16.31753284 3.15112305 13.05224609 C2.72691706 11.59476547 2.30283665 10.1372483 1.87890625 8.6796875 C1.5135376 7.42913574 1.14816895 6.17858398 0.77172852 4.89013672 C0 2 0 2 0 0 Z " fill="#07325D" transform="translate(748,749)"/>
<path d="M0 0 C6.54338061 5.79095902 10.4869413 12.79508053 11.35113525 21.56222534 C11.46117405 25.73760069 11.45097437 29.89476489 11.390625 34.0703125 C11.38314919 35.6030096 11.37746261 37.13571637 11.37347412 38.66842651 C11.35832288 42.67003546 11.31913463 46.67104823 11.2746582 50.67242432 C11.23347611 54.76851338 11.21541453 58.86470034 11.1953125 62.9609375 C11.15262757 70.97426018 11.0823667 78.98698686 11 87 C3.74 87 -3.52 87 -11 87 C-11.66 84.69 -12.32 82.38 -13 80 C-13.71285156 80.48210937 -14.42570312 80.96421875 -15.16015625 81.4609375 C-16.59681641 82.40839844 -16.59681641 82.40839844 -18.0625 83.375 C-19.00222656 84.00148438 -19.94195312 84.62796875 -20.91015625 85.2734375 C-29.80600233 90.24431483 -41.19512458 90.45694128 -51.046875 88.34765625 C-58.37354918 85.69685643 -64.7294754 80.97073388 -68.5 74.0625 C-71.34114896 66.6805862 -71.70749151 55.76890917 -68.5 48.4375 C-63.30153839 40.24270287 -55.20384202 35.50657825 -46 33 C-35.48655837 31.16304582 -24.65445781 30.61020276 -14 31 C-14.16967705 23.64610973 -14.16967705 23.64610973 -16.8125 16.9375 C-21.19245785 13.05810876 -24.80161686 12.54816542 -30.53125 12.69140625 C-34.28297272 13.16037159 -36.24824801 14.44480172 -39 17 C-40.32 19.31 -41.64 21.62 -43 24 C-50.92 24 -58.84 24 -67 24 C-65.94525196 13.4525196 -64.25248287 8.83816982 -56.875 1.75 C-42.01947852 -10.12780002 -15.62026505 -11.03202305 0 0 Z " fill="#07315C" transform="translate(312,754)"/>
<path d="M0 0 C8.25 0 16.5 0 25 0 C25.33 21.78 25.66 43.56 26 66 C29.96 61.71 33.92 57.42 38 53 C40.49721521 50.30977484 42.99570831 47.62108957 45.5 44.9375 C46.08007812 44.31423828 46.66015625 43.69097656 47.2578125 43.04882812 C47.82242188 42.44361328 48.38703125 41.83839844 48.96875 41.21484375 C49.45794922 40.69011475 49.94714844 40.16538574 50.45117188 39.62475586 C50.96228516 39.08858643 51.47339844 38.55241699 52 38 C52.58362305 37.28175049 53.16724609 36.56350098 53.76855469 35.82348633 C56.83431697 33.31821516 58.81377638 33.54059257 62.734375 33.609375 C64.67763672 33.62871094 64.67763672 33.62871094 66.66015625 33.6484375 C68.02344824 33.68185634 69.38672949 33.71571609 70.75 33.75 C72.12888064 33.77007293 73.50778912 33.78832233 74.88671875 33.8046875 C78.25851744 33.85184552 81.62890687 33.91765462 85 34 C83.68516427 36.91834217 82.28366724 38.94920929 79.98828125 41.171875 C79.39885742 41.74969727 78.80943359 42.32751953 78.20214844 42.92285156 C77.26677246 43.82729004 77.26677246 43.82729004 76.3125 44.75 C71.93369822 49.04914698 67.6952552 53.35843858 63.73046875 58.046875 C60.02780341 62.22595552 55.98241005 66.08970603 52 70 C53.44462013 73.03149707 55.10751864 75.80657004 56.94921875 78.61328125 C57.5431543 79.52086182 58.13708984 80.42844238 58.74902344 81.36352539 C59.3887207 82.33668701 60.02841797 83.30984863 60.6875 84.3125 C61.6760498 85.82348267 61.6760498 85.82348267 62.68457031 87.36499023 C65.4932007 91.65743164 68.30716284 95.94634 71.12548828 100.23242188 C72.50781945 102.33472389 73.8889518 104.43781473 75.26879883 106.54174805 C76.56393778 108.5164559 77.86183879 110.48935572 79.1628418 112.46020508 C80.04903198 113.81214966 80.04903198 113.81214966 80.953125 115.19140625 C81.47036133 115.97717041 81.98759766 116.76293457 82.52050781 117.57250977 C84.186992 120.30680882 85.60291021 123.12013017 87 126 C77.64763676 128.25149485 65.99952404 130.60364673 57 126 C46.18381782 117.02947713 39.40273085 102.25153588 33 90 C30.12068613 91.29072691 27.83804023 92.39468035 26 95 C25.49141092 98.29271596 25.49141092 98.29271596 25.48828125 102.07421875 C25.47033005 102.7580513 25.45237885 103.44188385 25.43388367 104.1464386 C25.37977925 106.32673 25.3458866 108.50680256 25.3125 110.6875 C25.2793268 112.16734817 25.24483713 113.64716745 25.20898438 115.12695312 C25.12157644 118.75133351 25.06151737 122.37471773 25 126 C16.75 126 8.5 126 0 126 C0 84.42 0 42.84 0 0 Z " fill="#06315C" transform="translate(426,715)"/>
<path d="M0 0 C27.39 0 54.78 0 83 0 C83 7.59 83 15.18 83 23 C64.19 23 45.38 23 26 23 C26 32.9 26 42.8 26 53 C42.5 53 59 53 76 53 C76 60.59 76 68.18 76 76 C59.5 76 43 76 26 76 C26 92.17 26 108.34 26 125 C17.42 125 8.84 125 0 125 C0 83.75 0 42.5 0 0 Z " fill="#09335D" transform="translate(524,716)"/>
<path d="M0 0 C33 0 66 0 100 0 C100 7.92 100 15.84 100 24 C88.12 24 76.24 24 64 24 C64 57.66 64 91.32 64 126 C55.09 126 46.18 126 37 126 C37 92.34 37 58.68 37 24 C24.79 24 12.58 24 0 24 C0 16.08 0 8.16 0 0 Z " fill="#08325D" transform="translate(149,715)"/>
<path d="M0 0 C6.02180257 4.26123832 10.95020877 9.64240795 13.59765625 16.609375 C13.7487183 19.28651251 13.65001908 21.92509078 13.59765625 24.609375 C10.01493849 24.7837709 6.43331023 24.89025158 2.84765625 24.984375 C1.32398438 25.05978516 1.32398438 25.05978516 -0.23046875 25.13671875 C-3.07239689 25.19280944 -5.61611254 25.17962955 -8.40234375 24.609375 C-10.9765625 21.69921875 -10.9765625 21.69921875 -12.40234375 18.609375 C-16.94532518 14.61705799 -21.10446362 14.30842364 -26.953125 14.40234375 C-30.26388443 14.68220061 -32.03495146 15.24198271 -34.40234375 17.609375 C-35.65072756 21.01466496 -35.65072756 21.01466496 -35.40234375 24.609375 C-32.47953196 28.43216241 -29.64400696 29.41204591 -25.0546875 30.5390625 C-23.18586914 31.02052734 -23.18586914 31.02052734 -21.27929688 31.51171875 C-19.96657158 31.83765701 -18.65341636 32.16186848 -17.33984375 32.484375 C6.78965129 38.4220634 6.78965129 38.4220634 13.515625 48.67578125 C17.37289338 55.56873377 17.63850033 62.64138386 15.53515625 70.171875 C12.15347975 79.07592229 6.04598479 83.39062285 -2.33984375 87.3828125 C-14.71875514 92.34069283 -31.37361739 93.07672477 -43.86328125 87.9296875 C-51.64837129 83.88144068 -59.07307571 79.09839425 -62.40234375 70.609375 C-62.73234375 67.309375 -63.06234375 64.009375 -63.40234375 60.609375 C-55.48234375 60.609375 -47.56234375 60.609375 -39.40234375 60.609375 C-38.41234375 62.589375 -37.42234375 64.569375 -36.40234375 66.609375 C-32.39542439 70.72458947 -29.09836187 70.9293112 -23.40234375 71.109375 C-17.74723288 70.9714263 -17.74723288 70.9714263 -12.52734375 69.046875 C-10.09934194 66.68583516 -10.09934194 66.68583516 -9.77734375 63.046875 C-10.05949197 59.65536929 -10.05949197 59.65536929 -11.98046875 58.015625 C-15.10549404 56.20109419 -18.28707892 55.44934118 -21.77734375 54.671875 C-23.21388075 54.32823733 -24.65007324 53.98315665 -26.0859375 53.63671875 C-26.80765137 53.4651123 -27.52936523 53.29350586 -28.27294922 53.11669922 C-40.70993475 50.15361094 -50.51757951 47.35481578 -58.2109375 36.63671875 C-61.85688307 30.43263432 -62.23987411 24.6798945 -61.40234375 17.609375 C-58.65610762 8.59150193 -52.56959806 2.67734735 -44.40234375 -1.703125 C-31.13922826 -8.24586724 -12.64750051 -7.32115477 0 0 Z " fill="#08315C" transform="translate(397.40234375,752.390625)"/>
<path d="M0 0 C3.23857278 1.30921027 4.60256422 2.52033613 6.8125 5.1875 C8.37072106 8.87802357 8.6573475 12.0932643 8 16 C5.76812195 21.08868196 2.8346205 24.38611099 -1.15234375 28.1953125 C-3.63385922 30.61911831 -5.8666664 33.22396266 -8.1328125 35.84765625 C-13.51045592 42.04657157 -19.07074877 48.0846331 -24.625 54.125 C-28.22772971 58.04391031 -31.77996248 61.99948171 -35.26953125 66.01953125 C-38.79721491 70.0568577 -42.40383105 74.02374815 -46 78 C-46.86496094 78.9590625 -47.72992188 79.918125 -48.62109375 80.90625 C-49.48863281 81.8653125 -50.35617187 82.824375 -51.25 83.8125 C-52.03890625 84.68519531 -52.8278125 85.55789063 -53.640625 86.45703125 C-62.74821541 96.27332489 -62.74821541 96.27332489 -68.625 96.5625 C-77.19749475 96.38780578 -82.55834479 89.6548624 -88.15820312 83.84423828 C-89.94063363 82.05944506 -91.7815956 80.41179024 -93.6953125 78.76953125 C-98.74889888 74.3804162 -103.58852385 69.77640296 -108.43945312 65.16601562 C-109.11556641 64.52728516 -109.79167969 63.88855469 -110.48828125 63.23046875 C-111.09196533 62.65707764 -111.69564941 62.08368652 -112.31762695 61.49291992 C-114.13755481 59.80908821 -114.13755481 59.80908821 -117 58 C-117 57.34 -117 56.68 -117 56 C-117.61875 55.731875 -118.2375 55.46375 -118.875 55.1875 C-121 54 -121 54 -123 51 C-123.7566428 46.43104157 -124.04593826 41.89390713 -121.76171875 37.7578125 C-118.38940398 33.72442362 -116.07681912 32.19592633 -110.6875 31.6875 C-103.45992673 32.30000621 -98.6506042 38.00159421 -93.625 42.8125 C-92.29379993 44.07119215 -90.96177752 45.32901518 -89.62890625 46.5859375 C-88.99871582 47.18116211 -88.36852539 47.77638672 -87.71923828 48.38964844 C-84.55750162 51.35113879 -81.28744894 54.18013132 -78 57 C-76.49887242 58.31121022 -74.99886909 59.62370866 -73.5 60.9375 C-72.8296875 61.52402344 -72.159375 62.11054688 -71.46875 62.71484375 C-70.9840625 63.13894531 -70.499375 63.56304687 -70 64 C-64.03104023 59.17403252 -59.03980514 53.7777766 -54 48 C-53.401875 47.31679688 -52.80375 46.63359375 -52.1875 45.9296875 C-51.06120897 44.64175285 -49.93621081 43.35268648 -48.8125 42.0625 C-45.96609213 38.82348414 -43.06904969 35.63036144 -40.1796875 32.4296875 C-38.30854906 30.3439382 -36.46075169 28.24182372 -34.625 26.125 C-31.17766276 22.16457071 -27.624751 18.30331973 -24.06494141 14.44433594 C-20.77478954 10.87021602 -17.57035442 7.23586999 -14.4375 3.5234375 C-10.19111395 -0.97680858 -5.77470527 -0.59132982 0 0 Z " fill="#FCFDFD" transform="translate(485,326)"/>
<path d="M0 0 C8.58 0 17.16 0 26 0 C26 41.25 26 82.5 26 125 C17.42 125 8.84 125 0 125 C0 83.75 0 42.5 0 0 Z " fill="#09335D" transform="translate(618,716)"/>
<path d="M0 0 C6.27 0 12.54 0 19 0 C19 18.81 19 37.62 19 57 C22.63 54.03 26.26 51.06 30 48 C35 45 35 45 38.5 45.0625 C42.28060685 46.07516255 44.211957 47.29395826 47 50 C48.5547669 53.10953379 48.28644437 55.56266761 48 59 C43.70969079 67.23739368 35.95721826 72.94628685 28.8515625 78.65234375 C25.16937625 81.68384229 21.67608608 84.89729686 18.19140625 88.15234375 C14.84979165 90.96978351 12.82624351 91.942018 8.4375 92.25 C2.95699659 91.39747725 -0.30220767 87.4823451 -4.13671875 83.75390625 C-6.85934996 81.13527732 -9.6668389 78.78334244 -12.625 76.4375 C-28.38940564 63.68122341 -28.38940564 63.68122341 -29.375 56.125 C-28.82224317 51.51869305 -26.817108 48.44115462 -23.1875 45.5625 C-19.85762013 44.70624518 -17.34621367 45.27042721 -14 46 C-10.98046875 47.99609375 -10.98046875 47.99609375 -8.1875 50.4375 C-6.78564453 51.64212891 -6.78564453 51.64212891 -5.35546875 52.87109375 C-3.87132748 54.2124818 -2.41456658 55.58543342 -1 57 C-0.67 38.19 -0.34 19.38 0 0 Z " fill="#07315C" transform="translate(638,476)"/>
<path d="M0 0 C5.64089611 3.24466179 9.07864592 8.98222451 10.921875 15.10546875 C11.35220919 18.22129738 11.3991723 21.27586195 11.359375 24.41796875 C11.35107666 25.25739014 11.34277832 26.09681152 11.33422852 26.96166992 C11.1362085 34.23203482 10.27976546 40.48582736 5.16796875 45.99609375 C-0.443275 51.00989819 -4.36269384 51.45727368 -11.875 51.3828125 C-17.45324109 50.89981845 -19.87562376 48.2520397 -23.765625 44.54296875 C-29.66552782 36.93019091 -29.92879918 26.29974168 -29.078125 17.10546875 C-27.89712015 10.98072268 -25.64551366 6.46986236 -21.078125 2.10546875 C-14.20756539 -2.53758311 -7.70403286 -3.1801531 0 0 Z " fill="#FCFDFD" transform="translate(711.078125,769.89453125)"/>
<path d="M0 0 C3.114375 -0.020625 6.22875 -0.04125 9.4375 -0.0625 C10.91174438 -0.07615601 10.91174438 -0.07615601 12.41577148 -0.09008789 C13.18477783 -0.09258545 13.95378418 -0.09508301 14.74609375 -0.09765625 C15.93223267 -0.10551147 15.93223267 -0.10551147 17.14233398 -0.11352539 C19 0 19 0 20 1 C20.0883967 3.3756852 20.11530305 5.72208674 20.09765625 8.09765625 C20.0962413 8.80651474 20.09482635 9.51537323 20.09336853 10.24571228 C20.08775443 12.51801712 20.07519963 14.79022475 20.0625 17.0625 C20.05748681 18.59960796 20.05292359 20.13671745 20.04882812 21.67382812 C20.0386297 25.44928667 20.01905732 29.22453404 20 33 C13.4 33 6.8 33 0 33 C0 22.11 0 11.22 0 0 Z " fill="#06305C" transform="translate(638,291)"/>
<path d="M0 0 C6.27 0 12.54 0 19 0 C19 10.89 19 21.78 19 33 C12.73 33 6.46 33 0 33 C0 22.11 0 11.22 0 0 Z " fill="#073460" transform="translate(638,384)"/>
<path d="M0 0 C1.39702148 0.00966797 1.39702148 0.00966797 2.82226562 0.01953125 C3.78197266 0.03628906 4.74167969 0.05304687 5.73046875 0.0703125 C6.70951172 0.07933594 7.68855469 0.08835937 8.69726562 0.09765625 C11.10441936 0.12114068 13.51106618 0.1539841 15.91796875 0.1953125 C16.54093048 11.04522931 16.54093048 11.04522931 14.29296875 15.1953125 C8.52113679 20.05580257 3.22104141 23.5495421 -4.51953125 23.1953125 C-8.81250311 22.55500483 -11.69978283 21.09617837 -14.81640625 18.07421875 C-16.77572071 15.16548339 -16.98582407 12.76256117 -16.70703125 9.3125 C-15.61210729 5.60344508 -13.26019687 4.17417034 -10.08203125 2.1953125 C-6.56997388 0.55393614 -3.86800572 -0.04746019 0 0 Z " fill="#F9FBFB" transform="translate(283.08203125,801.8046875)"/>
<path d="M0 0 C40.92 0 81.84 0 124 0 C124 0.99 124 1.98 124 3 C108.12771946 3.02333814 92.25544353 3.04098369 76.3831501 3.05181217 C69.01372835 3.05697318 61.64431726 3.06401217 54.27490234 3.07543945 C47.853334 3.08539224 41.43177336 3.09185485 35.01019752 3.09408849 C31.60857621 3.09539459 28.20697696 3.09847406 24.8053627 3.10573006 C21.01231811 3.11294482 17.21931984 3.11399075 13.42626953 3.11352539 C11.72587021 3.1189183 11.72587021 3.1189183 9.99111938 3.12442017 C8.4472052 3.12235817 8.4472052 3.12235817 6.87210083 3.12025452 C5.97427446 3.12117631 5.0764481 3.1220981 4.15141487 3.12304783 C2 3 2 3 0 2 C0 1.34 0 0.68 0 0 Z " fill="#F57F25" transform="translate(586,232)"/>
<path d="M0 0 C0 0.99 0 1.98 0 3 C-4.47414226 7.08508641 -6.91532292 9.12828738 -12.90869141 9.11352539 C-13.94388916 9.11340454 -14.97908691 9.11328369 -16.0456543 9.11315918 C-17.68207886 9.10548523 -17.68207886 9.10548523 -19.3515625 9.09765625 C-20.3521167 9.09664917 -21.3526709 9.09564209 -22.38354492 9.09460449 C-26.13070823 9.08936192 -29.87785523 9.07540072 -33.625 9.0625 C-41.99875 9.041875 -50.3725 9.02125 -59 9 C-59 27.81 -59 46.62 -59 66 C-59.33 66 -59.66 66 -60 66 C-60 46.86 -60 27.72 -60 8 C-65.94 8 -71.88 8 -78 8 C-78 7.67 -78 7.34 -78 7 C-62.76920744 5.79783292 -47.63761114 6.07650428 -32.375 6.4375 C-29.90365937 6.49086513 -27.43230514 6.54360385 -24.9609375 6.59570312 C-18.97378251 6.72326008 -12.98684087 6.85850058 -7 7 C-7 6.01 -7 5.02 -7 4 C-5.68 4 -4.36 4 -3 4 C-3 3.34 -3 2.68 -3 2 C-2.01 1.34 -1.02 0.68 0 0 Z " fill="#31B479" transform="translate(717,467)"/>
<path d="M0 0 C2.5625 2.125 2.5625 2.125 4 5 C4 8.63075827 3.41176127 10.42048414 1.3125 13.375 C-1.73171415 15.51417751 -3.35097722 15.60817046 -7 15 C-9.375 13.5 -9.375 13.5 -11 11 C-11.6293407 7.48559179 -11.63147635 4.2629527 -10 1 C-6.72212436 -0.63893782 -3.51817423 -0.74884833 0 0 Z " fill="#6EB8F8" transform="translate(430,222)"/>
<path d="M0 0 C0.99 0 1.98 0 3 0 C2.125 4.75 2.125 4.75 1 7 C0.01 7 -0.98 7 -2 7 C-2 7.99 -2 8.98 -2 10 C-18.83 10 -35.66 10 -53 10 C-53 9.67 -53 9.34 -53 9 C-30.23 8.505 -30.23 8.505 -7 8 C-31.75 7.505 -31.75 7.505 -57 7 C-57 6.67 -57 6.34 -57 6 C-56.08037979 5.99453156 -56.08037979 5.99453156 -55.1421814 5.98895264 C-48.75016634 5.94708047 -42.35886616 5.87770155 -35.96728516 5.79248047 C-33.58324337 5.76428805 -31.19910842 5.74306497 -28.81494141 5.72900391 C-25.38395548 5.70755131 -21.95408776 5.66088636 -18.5234375 5.609375 C-16.92935562 5.60753204 -16.92935562 5.60753204 -15.30307007 5.60565186 C-8.67867991 5.47510426 -4.79245598 4.79245598 0 0 Z " fill="#D4F7F8" transform="translate(716,470)"/>
<path d="M0 0 C6.27 0 12.54 0 19 0 C19 10.89 19 21.78 19 33 C12.73 33 6.46 33 0 33 C0 22.11 0 11.22 0 0 Z M2 1 C2 10.9 2 20.8 2 31 C7.28 31 12.56 31 18 31 C18 21.1 18 11.2 18 1 C12.72 1 7.44 1 2 1 Z " fill="#012449" transform="translate(638,384)"/>
<path d="M0 0 C16.5 0 33 0 50 0 C50 18.81 50 37.62 50 57 C47.69 55.02 45.38 53.04 43 51 C44.66666667 51 46.33333333 51 48 51 C48 34.83 48 18.66 48 2 C32.16 1.67 16.32 1.34 0 1 C0 0.67 0 0.34 0 0 Z " fill="#F8F6FE" transform="translate(588,477)"/>
<path d="M0 0 C2 3 2 3 2 10 C-10.21 10 -22.42 10 -35 10 C-31.4472937 7.63152913 -29.54232214 7.61773156 -25.3125 7.375 C-24.66273193 7.33705322 -24.01296387 7.29910645 -23.34350586 7.26000977 C-15.89899763 6.8683805 -8.45181549 6.91187078 -1 7 C-0.67 4.69 -0.34 2.38 0 0 Z " fill="#D3E4EC" transform="translate(357,230)"/>
<path d="M0 0 C1.90265625 -0.00386719 1.90265625 -0.00386719 3.84375 -0.0078125 C7.16105518 0.1126879 10.24630764 0.4923376 13.5 1.125 C13.83 2.115 14.16 3.105 14.5 4.125 C13.36570557 4.11714478 13.36570557 4.11714478 12.20849609 4.10913086 C8.76400593 4.08827276 5.3195291 4.07531174 1.875 4.0625 C0.68519531 4.05412109 -0.50460937 4.04574219 -1.73046875 4.03710938 C-2.88417969 4.03388672 -4.03789062 4.03066406 -5.2265625 4.02734375 C-6.28439941 4.02210693 -7.34223633 4.01687012 -8.43212891 4.01147461 C-11.53362346 4.12624422 -14.45347657 4.54803718 -17.5 5.125 C-12.70737228 -0.5892869 -7.06821675 -0.01436629 0 0 Z " fill="#092A54" transform="translate(284.5,746.875)"/>
<path d="M0 0 C3.14581423 -0.02888514 6.29159469 -0.04675923 9.4375 -0.0625 C10.33533203 -0.07087891 11.23316406 -0.07925781 12.15820312 -0.08789062 C13.01220703 -0.09111328 13.86621094 -0.09433594 14.74609375 -0.09765625 C15.93223267 -0.10551147 15.93223267 -0.10551147 17.14233398 -0.11352539 C19 0 19 0 20 1 C20.0883967 3.3756852 20.11530305 5.72208674 20.09765625 8.09765625 C20.0962413 8.80651474 20.09482635 9.51537323 20.09336853 10.24571228 C20.08775443 12.51801712 20.07519963 14.79022475 20.0625 17.0625 C20.05748681 18.59960796 20.05292359 20.13671745 20.04882812 21.67382812 C20.03778042 25.44925642 20.02050641 29.22461171 20 33 C19.67 33 19.34 33 19 33 C18.505 17.655 18.505 17.655 18 2 C12.06 2 6.12 2 0 2 C0 1.34 0 0.68 0 0 Z " fill="#4B5565" transform="translate(638,291)"/>
<path d="M0 0 C15.51 0 31.02 0 47 0 C47 0.33 47 0.66 47 1 C49.31 1.33 51.62 1.66 54 2 C54 2.33 54 2.66 54 3 C50.68751813 3.02888146 47.37506833 3.04675799 44.0625 3.0625 C43.11697266 3.07087891 42.17144531 3.07925781 41.19726562 3.08789062 C39.84858398 3.09272461 39.84858398 3.09272461 38.47265625 3.09765625 C37.22367554 3.10551147 37.22367554 3.10551147 35.94946289 3.11352539 C34 3 34 3 33 2 C30.55391002 1.84019563 28.13268942 1.74070553 25.68359375 1.68359375 C24.58701195 1.6524221 24.58701195 1.6524221 23.46827698 1.62062073 C21.12478344 1.55504976 18.78117461 1.49620568 16.4375 1.4375 C14.85220145 1.39432192 13.26691471 1.35070787 11.68164062 1.30664062 C7.78787963 1.1993608 3.89400228 1.0981151 0 1 C0 0.67 0 0.34 0 0 Z " fill="#3CDB88" transform="translate(603,473)"/>
<path d="M0 0 C2.88916016 -0.34057617 2.88916016 -0.34057617 6.5390625 -0.29296875 C8.49199219 -0.2784668 8.49199219 -0.2784668 10.484375 -0.26367188 C11.86458923 -0.23860388 13.24479756 -0.21320902 14.625 -0.1875 C16.01300663 -0.17245517 17.40102867 -0.15876641 18.7890625 -0.14648438 C22.19309509 -0.1110257 25.59635622 -0.06160298 29 0 C28.67 0.99 28.34 1.98 28 3 C18.1 3 8.2 3 -2 3 C-1.34 2.01 -0.68 1.02 0 0 Z " fill="#0B2143" transform="translate(482,749)"/>
<path d="M0 0 C8.58 0 17.16 0 26 0 C26.33 2.97 26.66 5.94 27 9 C25 6 25 6 25 2 C17.41 2 9.82 2 2 2 C1.67 2.66 1.34 3.32 1 4 C0.67 2.68 0.34 1.36 0 0 Z " fill="#092142" transform="translate(748,749)"/>
<path d="M0 0 C7.92 0 15.84 0 24 0 C23.01 3.63 22.02 7.26 21 11 C20 8 20 8 22 2 C11.11 2.495 11.11 2.495 0 3 C0 2.01 0 1.02 0 0 Z " fill="#071D41" transform="translate(859,749)"/>
<path d="M0 0 C6.6 0 13.2 0 20 0 C20 0.66 20 1.32 20 2 C13.73 2 7.46 2 1 2 C0.34 4.31 -0.32 6.62 -1 9 C-2.48576635 4.98843085 -1.80747878 4.51869696 0 0 Z " fill="#092042" transform="translate(806,749)"/>
<path d="M0 0 C0 5.01738725 -3.77660526 8.11730375 -7.12890625 11.58203125 C-10.73689403 14.62059511 -13.14980497 15.32612328 -17.79296875 15.296875 C-20.44968947 14.9395108 -22.66158707 14.32510066 -25 13 C-22.5094788 11.7547394 -21.01698883 12.03238093 -18.25 12.1875 C-13.26041345 12.20897598 -10.82325816 11.3984517 -7 8 C-4.57106556 5.40781742 -2.25290025 2.74613877 0 0 Z " fill="#61A8EF" transform="translate(434,409)"/>
<path d="M0 0 C2 3 2 3 1.375 6.4375 C0.01655007 9.95712027 -1.14261825 11.61884854 -4 14 C-4.99 13.67 -5.98 13.34 -7 13 C-6.67 11.35 -6.34 9.7 -6 8 C-5.34 8 -4.68 8 -4 8 C-1.6716065 6.23042094 -1.04711194 5.18416484 -0.3125 2.3125 C-0.1578125 1.1678125 -0.1578125 1.1678125 0 0 Z " fill="#F18736" transform="translate(718,275)"/>
<path d="M0 0 C0.33 1.32 0.66 2.64 1 4 C0.34 4 -0.32 4 -1 4 C-1.24492187 4.57234375 -1.48984375 5.1446875 -1.7421875 5.734375 C-3.21110099 8.38024402 -4.95348244 10.14853139 -7.125 12.25 C-7.84945313 12.95640625 -8.57390625 13.6628125 -9.3203125 14.390625 C-9.87460937 14.92171875 -10.42890625 15.4528125 -11 16 C-11.66 15.67 -12.32 15.34 -13 15 C-12.39671875 14.33613281 -11.7934375 13.67226563 -11.171875 12.98828125 C-10.37265625 12.10527344 -9.5734375 11.22226562 -8.75 10.3125 C-7.96109375 9.44238281 -7.1721875 8.57226562 -6.359375 7.67578125 C-4.15500436 5.17579137 -2.05866059 2.62054272 0 0 Z " fill="#62ABF2" transform="translate(492,344)"/>
<path d="M0 0 C0.66 0.33 1.32 0.66 2 1 C-1.15901225 4.42978473 -3.57480271 6.52493424 -8 8 C-9.34050052 8.65213539 -10.67661368 9.31379969 -12 10 C-8.44255049 5.25673399 -5.38846744 2.54172993 0 0 Z " fill="#091F45" transform="translate(263,751)"/>
<path d="M0 0 C1.125 1.6875 1.125 1.6875 2 4 C1.25 6.375 1.25 6.375 0 9 C-0.67795528 10.99620166 -1.34733531 12.99538701 -2 15 C-2.33 15 -2.66 15 -3 15 C-2.5547115 9.72684667 -1.91626837 4.98229776 0 0 Z " fill="#0F2349" transform="translate(852,776)"/>
<path d="M0 0 C0.66 0.33 1.32 0.66 2 1 C2 1.66 2 2.32 2 3 C1.34 3 0.68 3 0 3 C0.33 5.64 0.66 8.28 1 11 C0.01 10.67 -0.98 10.34 -2 10 C-2 9.34 -2 8.68 -2 8 C-2.99 7.67 -3.98 7.34 -5 7 C-4.54625 6.5875 -4.0925 6.175 -3.625 5.75 C-1.94049626 3.93591905 -1.00734029 2.24714373 0 0 Z " fill="#E5F3E6" transform="translate(719,373)"/>
<path d="M0 0 C0 0.99 0 1.98 0 3 C-2.93026082 5.7349101 -5.17727085 7.72575695 -9 9 C-9 8.34 -9 7.68 -9 7 C-8.34 7 -7.68 7 -7 7 C-7 6.01 -7 5.02 -7 4 C-5.68 4 -4.36 4 -3 4 C-3 3.34 -3 2.68 -3 2 C-2.01 1.34 -1.02 0.68 0 0 Z " fill="#25CA73" transform="translate(717,467)"/>
<path d="M0 0 C1.31223496 3.93670488 0.24296256 6.12488144 -1 10 C-2.74627478 7.38058783 -3.38722388 5.96175123 -4 3 C-3.34 3 -2.68 3 -2 3 C-2 2.34 -2 1.68 -2 1 C-1.34 0.67 -0.68 0.34 0 0 Z " fill="#EEF3F6" transform="translate(845,799)"/>
<path d="M0 0 C0.33 0.66 0.66 1.32 1 2 C1.66 2 2.32 2 3 2 C2.625 4.4375 2.625 4.4375 2 7 C1.01 7.495 1.01 7.495 0 8 C0 6.68 0 5.36 0 4 C-0.99 3.67 -1.98 3.34 -3 3 C-2.01 2.01 -1.02 1.02 0 0 Z " fill="#F48B3A" transform="translate(581,235)"/>
<path d="M0 0 C0.66 0.33 1.32 0.66 2 1 C2.625 4.0625 2.625 4.0625 3 7 C2.01 7.66 1.02 8.32 0 9 C-1.125 3.375 -1.125 3.375 0 0 Z " fill="#123661" transform="translate(858,751)"/>
<path d="M0 0 C0.66 0.33 1.32 0.66 2 1 C0.35 2.32 -1.3 3.64 -3 5 C-1.125 1.125 -1.125 1.125 0 0 Z M-4 5 C-3 8 -3 8 -3 10 C-3.99 10 -4.98 10 -6 10 C-5.34 8.35 -4.68 6.7 -4 5 Z " fill="#E3ECF0" transform="translate(690,772)"/>
<path d="M0 0 C0.598125 0.33 1.19625 0.66 1.8125 1 C4.05386471 2.20787988 4.05386471 2.20787988 7 2 C7 3.65 7 5.3 7 7 C5.83040013 6.02433888 4.66438823 5.044375 3.5 4.0625 C2.8503125 3.51722656 2.200625 2.97195313 1.53125 2.41015625 C1.0259375 1.94480469 0.520625 1.47945312 0 1 C0 0.67 0 0.34 0 0 Z " fill="#EDF9FB" transform="translate(631,527)"/>
<path d="M0 0 C0.66 0.66 1.32 1.32 2 2 C1.54545455 7.45454545 1.54545455 7.45454545 -1 10 C-1.125 2.25 -1.125 2.25 0 0 Z " fill="#09254E" transform="translate(875,767)"/>
<path d="M0 0 C4.54195365 -0.37849614 5.0144396 0.0108297 9 3 C5.7 3 2.4 3 -1 3 C-0.67 2.01 -0.34 1.02 0 0 Z " fill="#1B426B" transform="translate(694,747)"/>
</svg>
